<svg id="visual" viewBox="0 0 2000 450" width="2000" height="450" xmlns="http://www.w3.org/2000/svg" xmlns:xlink="http://www.w3.org/1999/xlink" version="1.1"><path d="M0 33L33.3 42C66.7 51 133.3 69 200 78C266.7 87 333.3 87 400 87.7C466.7 88.3 533.3 89.7 600 93.3C666.7 97 733.3 103 800 91.8C866.7 80.7 933.3 52.3 1000 38.8C1066.7 25.3 1133.3 26.7 1200 36.3C1266.7 46 1333.3 64 1400 76.8C1466.7 89.7 1533.3 97.3 1600 97.3C1666.7 97.3 1733.3 89.7 1800 88.8C1866.7 88 1933.3 94 1966.7 97L2000 100L2000 0L1966.7 0C1933.3 0 1866.7 0 1800 0C1733.3 0 1666.7 0 1600 0C1533.3 0 1466.7 0 1400 0C1333.3 0 1266.7 0 1200 0C1133.3 0 1066.7 0 1000 0C933.3 0 866.7 0 800 0C733.3 0 666.7 0 600 0C533.3 0 466.7 0 400 0C333.3 0 266.7 0 200 0C133.3 0 66.7 0 33.3 0L0 0Z" fill="#e2e8f0"></path><path d="M0 244L33.3 244C66.7 244 133.3 244 200 250.8C266.7 257.7 333.3 271.3 400 251.8C466.7 232.3 533.3 179.7 600 157.2C666.7 134.7 733.3 142.3 800 149.8C866.7 157.3 933.3 164.7 1000 161.7C1066.7 158.7 1133.3 145.3 1200 138.7C1266.7 132 1333.3 132 1400 139.5C1466.7 147 1533.3 162 1600 170.2C1666.7 178.3 1733.3 179.7 1800 205.2C1866.7 230.7 1933.3 280.3 1966.7 305.2L2000 330L2000 98L1966.7 95C1933.3 92 1866.7 86 1800 86.8C1733.3 87.7 1666.7 95.3 1600 95.3C1533.3 95.3 1466.7 87.7 1400 74.8C1333.3 62 1266.7 44 1200 34.3C1133.3 24.7 1066.7 23.3 1000 36.8C933.3 50.3 866.7 78.7 800 89.8C733.3 101 666.7 95 600 91.3C533.3 87.7 466.7 86.3 400 85.7C333.3 85 266.7 85 200 76C133.3 67 66.7 49 33.3 40L0 31Z" fill="#d4dde9"></path><path d="M0 348L33.3 350.2C66.7 352.3 133.3 356.7 200 366.3C266.7 376 333.3 391 400 371.5C466.7 352 533.3 298 600 278.5C666.7 259 733.3 274 800 282.3C866.7 290.7 933.3 292.3 1000 284.2C1066.7 276 1133.3 258 1200 236.2C1266.7 214.3 1333.3 188.7 1400 201.3C1466.7 214 1533.3 265 1600 275.5C1666.7 286 1733.3 256 1800 262.8C1866.7 269.7 1933.3 313.3 1966.7 335.2L2000 357L2000 328L1966.7 303.2C1933.3 278.3 1866.7 228.7 1800 203.2C1733.3 177.7 1666.7 176.3 1600 168.2C1533.3 160 1466.7 145 1400 137.5C1333.3 130 1266.7 130 1200 136.7C1133.3 143.3 1066.7 156.7 1000 159.7C933.3 162.7 866.7 155.3 800 147.8C733.3 140.3 666.7 132.7 600 155.2C533.3 177.7 466.7 230.3 400 249.8C333.3 269.3 266.7 255.7 200 248.8C133.3 242 66.7 242 33.3 242L0 242Z" fill="#c6d3e3"></path><path d="M0 451L33.3 451C66.7 451 133.3 451 200 451C266.7 451 333.3 451 400 451C466.7 451 533.3 451 600 451C666.7 451 733.3 451 800 451C866.7 451 933.3 451 1000 451C1066.7 451 1133.3 451 1200 451C1266.7 451 1333.3 451 1400 451C1466.7 451 1533.3 451 1600 451C1666.7 451 1733.3 451 1800 451C1866.7 451 1933.3 451 1966.7 451L2000 451L2000 355L1966.7 333.2C1933.3 311.3 1866.7 267.7 1800 260.8C1733.3 254 1666.7 284 1600 273.5C1533.3 263 1466.7 212 1400 199.3C1333.3 186.7 1266.7 212.3 1200 234.2C1133.3 256 1066.7 274 1000 282.2C933.3 290.3 866.7 288.7 800 280.3C733.3 272 666.7 257 600 276.5C533.3 296 466.7 350 400 369.5C333.3 389 266.7 374 200 364.3C133.3 354.7 66.7 350.3 33.3 348.2L0 346Z" fill="#b9c8dd"></path></svg>