<svg id="visual" viewBox="0 0 1200 350" width="1200" height="350" xmlns="http://www.w3.org/2000/svg" xmlns:xlink="http://www.w3.org/1999/xlink" version="1.1"><path d="M0 116L28.5 129.2C57 142.3 114 168.7 171.2 175.8C228.3 183 285.7 171 342.8 163.7C400 156.3 457 153.7 514.2 160.3C571.3 167 628.7 183 685.8 191.2C743 199.3 800 199.7 857.2 190C914.3 180.3 971.7 160.7 1028.8 157.2C1086 153.7 1143 166.3 1171.5 172.7L1200 179L1200 351L1171.5 351C1143 351 1086 351 1028.8 351C971.7 351 914.3 351 857.2 351C800 351 743 351 685.8 351C628.7 351 571.3 351 514.2 351C457 351 400 351 342.8 351C285.7 351 228.3 351 171.2 351C114 351 57 351 28.5 351L0 351Z" fill="#e0deca"></path><path d="M0 165L28.5 167.8C57 170.7 114 176.3 171.2 183.5C228.3 190.7 285.7 199.3 342.8 205.2C400 211 457 214 514.2 210.8C571.3 207.7 628.7 198.3 685.8 189.5C743 180.7 800 172.3 857.2 172.5C914.3 172.7 971.7 181.3 1028.8 193.7C1086 206 1143 222 1171.5 230L1200 238L1200 351L1171.5 351C1143 351 1086 351 1028.8 351C971.7 351 914.3 351 857.2 351C800 351 743 351 685.8 351C628.7 351 571.3 351 514.2 351C457 351 400 351 342.8 351C285.7 351 228.3 351 171.2 351C114 351 57 351 28.5 351L0 351Z" fill="#d7d0b0"></path><path d="M0 204L28.5 207.7C57 211.3 114 218.7 171.2 225.7C228.3 232.7 285.7 239.3 342.8 244.2C400 249 457 252 514.2 244.2C571.3 236.3 628.7 217.7 685.8 219.2C743 220.7 800 242.3 857.2 242.3C914.3 242.3 971.7 220.7 1028.8 212.8C1086 205 1143 211 1171.5 214L1200 217L1200 351L1171.5 351C1143 351 1086 351 1028.8 351C971.7 351 914.3 351 857.2 351C800 351 743 351 685.8 351C628.7 351 571.3 351 514.2 351C457 351 400 351 342.8 351C285.7 351 228.3 351 171.2 351C114 351 57 351 28.5 351L0 351Z" fill="#d1c196"></path><path d="M0 283L28.5 283.5C57 284 114 285 171.2 282.2C228.3 279.3 285.7 272.7 342.8 267C400 261.3 457 256.7 514.2 257.3C571.3 258 628.7 264 685.8 265.8C743 267.7 800 265.3 857.2 261.7C914.3 258 971.7 253 1028.8 255.5C1086 258 1143 268 1171.5 273L1200 278L1200 351L1171.5 351C1143 351 1086 351 1028.8 351C971.7 351 914.3 351 857.2 351C800 351 743 351 685.8 351C628.7 351 571.3 351 514.2 351C457 351 400 351 342.8 351C285.7 351 228.3 351 171.2 351C114 351 57 351 28.5 351L0 351Z" fill="#ccb17d"></path><path d="M0 302L28.5 299.8C57 297.7 114 293.3 171.2 290.5C228.3 287.7 285.7 286.3 342.8 287.8C400 289.3 457 293.7 514.2 293.5C571.3 293.3 628.7 288.7 685.8 287.8C743 287 800 290 857.2 292.7C914.3 295.3 971.7 297.7 1028.8 300.5C1086 303.3 1143 306.7 1171.5 308.3L1200 310L1200 351L1171.5 351C1143 351 1086 351 1028.8 351C971.7 351 914.3 351 857.2 351C800 351 743 351 685.8 351C628.7 351 571.3 351 514.2 351C457 351 400 351 342.8 351C285.7 351 228.3 351 171.2 351C114 351 57 351 28.5 351L0 351Z" fill="#c9a165"></path></svg>