<svg id="visual" viewBox="0 0 1200 450" width="1200" height="450" xmlns="http://www.w3.org/2000/svg" xmlns:xlink="http://www.w3.org/1999/xlink" version="1.1"><rect x="0" y="0" width="1200" height="450" fill="#ddd9d5"></rect><path d="M0 257L28.5 262.3C57 267.7 114 278.3 171.2 275.7C228.3 273 285.7 257 342.8 255C400 253 457 265 514.2 260.5C571.3 256 628.7 235 685.8 238.5C743 242 800 270 857.2 270C914.3 270 971.7 242 1028.8 235.5C1086 229 1143 244 1171.5 251.5L1200 259L1200 0L1171.5 0C1143 0 1086 0 1028.8 0C971.7 0 914.3 0 857.2 0C800 0 743 0 685.8 0C628.7 0 571.3 0 514.2 0C457 0 400 0 342.8 0C285.7 0 228.3 0 171.2 0C114 0 57 0 28.5 0L0 0Z" fill="#dbd9d6"></path><path d="M0 182L28.5 187.7C57 193.3 114 204.7 171.2 207.2C228.3 209.7 285.7 203.3 342.8 199.5C400 195.7 457 194.3 514.2 199.7C571.3 205 628.7 217 685.8 226C743 235 800 241 857.2 241.2C914.3 241.3 971.7 235.7 1028.8 236.7C1086 237.7 1143 245.3 1171.5 249.2L1200 253L1200 0L1171.5 0C1143 0 1086 0 1028.8 0C971.7 0 914.3 0 857.2 0C800 0 743 0 685.8 0C628.7 0 571.3 0 514.2 0C457 0 400 0 342.8 0C285.7 0 228.3 0 171.2 0C114 0 57 0 28.5 0L0 0Z" fill="#d9d0c2"></path><path d="M0 162L28.5 173C57 184 114 206 171.2 205.8C228.3 205.7 285.7 183.3 342.8 172.3C400 161.3 457 161.7 514.2 166.7C571.3 171.7 628.7 181.3 685.8 181.8C743 182.3 800 173.7 857.2 168.7C914.3 163.7 971.7 162.3 1028.8 162.2C1086 162 1143 163 1171.5 163.5L1200 164L1200 0L1171.5 0C1143 0 1086 0 1028.8 0C971.7 0 914.3 0 857.2 0C800 0 743 0 685.8 0C628.7 0 571.3 0 514.2 0C457 0 400 0 342.8 0C285.7 0 228.3 0 171.2 0C114 0 57 0 28.5 0L0 0Z" fill="#d6c6af"></path><path d="M0 166L28.5 160.7C57 155.3 114 144.7 171.2 145.5C228.3 146.3 285.7 158.7 342.8 159.5C400 160.3 457 149.7 514.2 141C571.3 132.3 628.7 125.7 685.8 125.2C743 124.7 800 130.3 857.2 131.5C914.3 132.7 971.7 129.3 1028.8 132.8C1086 136.3 1143 146.7 1171.5 151.8L1200 157L1200 0L1171.5 0C1143 0 1086 0 1028.8 0C971.7 0 914.3 0 857.2 0C800 0 743 0 685.8 0C628.7 0 571.3 0 514.2 0C457 0 400 0 342.8 0C285.7 0 228.3 0 171.2 0C114 0 57 0 28.5 0L0 0Z" fill="#d3bd9c"></path><path d="M0 133L28.5 133.2C57 133.3 114 133.7 171.2 130.2C228.3 126.7 285.7 119.3 342.8 119.7C400 120 457 128 514.2 126.2C571.3 124.3 628.7 112.7 685.8 113.7C743 114.7 800 128.3 857.2 128.7C914.3 129 971.7 116 1028.8 107C1086 98 1143 93 1171.5 90.5L1200 88L1200 0L1171.5 0C1143 0 1086 0 1028.8 0C971.7 0 914.3 0 857.2 0C800 0 743 0 685.8 0C628.7 0 571.3 0 514.2 0C457 0 400 0 342.8 0C285.7 0 228.3 0 171.2 0C114 0 57 0 28.5 0L0 0Z" fill="#d0b489"></path><path d="M0 82L28.5 84.5C57 87 114 92 171.2 95.2C228.3 98.3 285.7 99.7 342.8 94.7C400 89.7 457 78.3 514.2 72.7C571.3 67 628.7 67 685.8 71.2C743 75.3 800 83.7 857.2 88.8C914.3 94 971.7 96 1028.8 90C1086 84 1143 70 1171.5 63L1200 56L1200 0L1171.5 0C1143 0 1086 0 1028.8 0C971.7 0 914.3 0 857.2 0C800 0 743 0 685.8 0C628.7 0 571.3 0 514.2 0C457 0 400 0 342.8 0C285.7 0 228.3 0 171.2 0C114 0 57 0 28.5 0L0 0Z" fill="#cdaa77"></path><path d="M0 34L28.5 36.7C57 39.3 114 44.7 171.2 43.2C228.3 41.7 285.7 33.3 342.8 34.7C400 36 457 47 514.2 51.3C571.3 55.7 628.7 53.3 685.8 51C743 48.7 800 46.3 857.2 43C914.3 39.7 971.7 35.3 1028.8 32.2C1086 29 1143 27 1171.5 26L1200 25L1200 0L1171.5 0C1143 0 1086 0 1028.8 0C971.7 0 914.3 0 857.2 0C800 0 743 0 685.8 0C628.7 0 571.3 0 514.2 0C457 0 400 0 342.8 0C285.7 0 228.3 0 171.2 0C114 0 57 0 28.5 0L0 0Z" fill="#c9a165"></path></svg>