<svg id="visual" viewBox="0 0 1200 400" width="1200" height="400" xmlns="http://www.w3.org/2000/svg" xmlns:xlink="http://www.w3.org/1999/xlink" version="1.1"><path d="M0 61L20 67C40 73 80 85 120 90.3C160 95.7 200 94.3 240 100.3C280 106.3 320 119.7 360 132.3C400 145 440 157 480 167C520 177 560 185 600 178.3C640 171.7 680 150.3 720 134.3C760 118.3 800 107.7 840 108.3C880 109 920 121 960 121.7C1000 122.3 1040 111.7 1080 110.3C1120 109 1160 117 1180 121L1200 125L1200 0L1180 0C1160 0 1120 0 1080 0C1040 0 1000 0 960 0C920 0 880 0 840 0C800 0 760 0 720 0C680 0 640 0 600 0C560 0 520 0 480 0C440 0 400 0 360 0C320 0 280 0 240 0C200 0 160 0 120 0C80 0 40 0 20 0L0 0Z" fill="#ddd9d5"></path><path d="M0 129L20 131C40 133 80 137 120 142.3C160 147.7 200 154.3 240 164.3C280 174.3 320 187.7 360 195.7C400 203.7 440 206.3 480 211C520 215.7 560 222.3 600 222.3C640 222.3 680 215.7 720 203C760 190.3 800 171.7 840 167.7C880 163.7 920 174.3 960 172.3C1000 170.3 1040 155.7 1080 157C1120 158.3 1160 175.7 1180 184.3L1200 193L1200 123L1180 119C1160 115 1120 107 1080 108.3C1040 109.7 1000 120.3 960 119.7C920 119 880 107 840 106.3C800 105.7 760 116.3 720 132.3C680 148.3 640 169.7 600 176.3C560 183 520 175 480 165C440 155 400 143 360 130.3C320 117.7 280 104.3 240 98.3C200 92.3 160 93.7 120 88.3C80 83 40 71 20 65L0 59Z" fill="#68505d"></path><path d="M0 185L20 191.7C40 198.3 80 211.7 120 213.7C160 215.7 200 206.3 240 211C280 215.7 320 234.3 360 247C400 259.7 440 266.3 480 269.7C520 273 560 273 600 277.7C640 282.3 680 291.7 720 281.7C760 271.7 800 242.3 840 231C880 219.7 920 226.3 960 229.7C1000 233 1040 233 1080 237.7C1120 242.3 1160 251.7 1180 256.3L1200 261L1200 191L1180 182.3C1160 173.7 1120 156.3 1080 155C1040 153.7 1000 168.3 960 170.3C920 172.3 880 161.7 840 165.7C800 169.7 760 188.3 720 201C680 213.7 640 220.3 600 220.3C560 220.3 520 213.7 480 209C440 204.3 400 201.7 360 193.7C320 185.7 280 172.3 240 162.3C200 152.3 160 145.7 120 140.3C80 135 40 131 20 129L0 127Z" fill="#0b142d"></path><path d="M0 217L20 227.7C40 238.3 80 259.7 120 265.7C160 271.7 200 262.3 240 265.7C280 269 320 285 360 295.7C400 306.3 440 311.7 480 315C520 318.3 560 319.7 600 325C640 330.3 680 339.7 720 330.3C760 321 800 293 840 283C880 273 920 281 960 283.7C1000 286.3 1040 283.7 1080 285C1120 286.3 1160 291.7 1180 294.3L1200 297L1200 259L1180 254.3C1160 249.7 1120 240.3 1080 235.7C1040 231 1000 231 960 227.7C920 224.3 880 217.7 840 229C800 240.3 760 269.7 720 279.7C680 289.7 640 280.3 600 275.7C560 271 520 271 480 267.7C440 264.3 400 257.7 360 245C320 232.3 280 213.7 240 209C200 204.3 160 213.7 120 211.7C80 209.7 40 196.3 20 189.7L0 183Z" fill="#68505d"></path><path d="M0 401L20 401C40 401 80 401 120 401C160 401 200 401 240 401C280 401 320 401 360 401C400 401 440 401 480 401C520 401 560 401 600 401C640 401 680 401 720 401C760 401 800 401 840 401C880 401 920 401 960 401C1000 401 1040 401 1080 401C1120 401 1160 401 1180 401L1200 401L1200 295L1180 292.3C1160 289.7 1120 284.3 1080 283C1040 281.7 1000 284.3 960 281.7C920 279 880 271 840 281C800 291 760 319 720 328.3C680 337.7 640 328.3 600 323C560 317.7 520 316.3 480 313C440 309.7 400 304.3 360 293.7C320 283 280 267 240 263.7C200 260.3 160 269.7 120 263.7C80 257.7 40 236.3 20 225.7L0 215Z" fill="#ddd9d5"></path></svg>