<svg id="visual" viewBox="0 0 1000 300" width="1000" height="300" xmlns="http://www.w3.org/2000/svg" xmlns:xlink="http://www.w3.org/1999/xlink" version="1.1"><path d="M0 97L13.8 100C27.7 103 55.3 109 83.2 102C111 95 139 75 166.8 79C194.7 83 222.3 111 250 111.5C277.7 112 305.3 85 333.2 82.5C361 80 389 102 416.8 120C444.7 138 472.3 152 500 139.5C527.7 127 555.3 88 583.2 64C611 40 639 31 666.8 26C694.7 21 722.3 20 750 24.5C777.7 29 805.3 39 833.2 51C861 63 889 77 916.8 89C944.7 101 972.3 111 986.2 116L1000 121L1000 0L986.2 0C972.3 0 944.7 0 916.8 0C889 0 861 0 833.2 0C805.3 0 777.7 0 750 0C722.3 0 694.7 0 666.8 0C639 0 611 0 583.2 0C555.3 0 527.7 0 500 0C472.3 0 444.7 0 416.8 0C389 0 361 0 333.2 0C305.3 0 277.7 0 250 0C222.3 0 194.7 0 166.8 0C139 0 111 0 83.2 0C55.3 0 27.7 0 13.8 0L0 0Z" fill="#ddd9d5"></path><path d="M0 157L13.8 160C27.7 163 55.3 169 83.2 163C111 157 139 139 166.8 137.5C194.7 136 222.3 151 250 151.5C277.7 152 305.3 138 333.2 139.5C361 141 389 158 416.8 172C444.7 186 472.3 197 500 182.5C527.7 168 555.3 128 583.2 105.5C611 83 639 78 666.8 77C694.7 76 722.3 79 750 81.5C777.7 84 805.3 86 833.2 97C861 108 889 128 916.8 137C944.7 146 972.3 144 986.2 143L1000 142L1000 119L986.2 114C972.3 109 944.7 99 916.8 87C889 75 861 61 833.2 49C805.3 37 777.7 27 750 22.5C722.3 18 694.7 19 666.8 24C639 29 611 38 583.2 62C555.3 86 527.7 125 500 137.5C472.3 150 444.7 136 416.8 118C389 100 361 78 333.2 80.5C305.3 83 277.7 110 250 109.5C222.3 109 194.7 81 166.8 77C139 73 111 93 83.2 100C55.3 107 27.7 101 13.8 98L0 95Z" fill="#81696f"></path><path d="M0 181L13.8 181C27.7 181 55.3 181 83.2 174.5C111 168 139 155 166.8 163C194.7 171 222.3 200 250 203C277.7 206 305.3 183 333.2 175C361 167 389 174 416.8 184C444.7 194 472.3 207 500 195.5C527.7 184 555.3 148 583.2 131C611 114 639 116 666.8 121C694.7 126 722.3 134 750 130.5C777.7 127 805.3 112 833.2 121.5C861 131 889 165 916.8 181.5C944.7 198 972.3 197 986.2 196.5L1000 196L1000 140L986.2 141C972.3 142 944.7 144 916.8 135C889 126 861 106 833.2 95C805.3 84 777.7 82 750 79.5C722.3 77 694.7 74 666.8 75C639 76 611 81 583.2 103.5C555.3 126 527.7 166 500 180.5C472.3 195 444.7 184 416.8 170C389 156 361 139 333.2 137.5C305.3 136 277.7 150 250 149.5C222.3 149 194.7 134 166.8 135.5C139 137 111 155 83.2 161C55.3 167 27.7 161 13.8 158L0 155Z" fill="#0b142d"></path><path d="M0 226L13.8 225C27.7 224 55.3 222 83.2 217.5C111 213 139 206 166.8 214C194.7 222 222.3 245 250 243.5C277.7 242 305.3 216 333.2 207C361 198 389 206 416.8 215.5C444.7 225 472.3 236 500 228.5C527.7 221 555.3 195 583.2 181.5C611 168 639 167 666.8 169C694.7 171 722.3 176 750 166C777.7 156 805.3 131 833.2 142C861 153 889 200 916.8 217.5C944.7 235 972.3 223 986.2 217L1000 211L1000 194L986.2 194.5C972.3 195 944.7 196 916.8 179.5C889 163 861 129 833.2 119.5C805.3 110 777.7 125 750 128.5C722.3 132 694.7 124 666.8 119C639 114 611 112 583.2 129C555.3 146 527.7 182 500 193.5C472.3 205 444.7 192 416.8 182C389 172 361 165 333.2 173C305.3 181 277.7 204 250 201C222.3 198 194.7 169 166.8 161C139 153 111 166 83.2 172.5C55.3 179 27.7 179 13.8 179L0 179Z" fill="#0b142d"></path><path d="M0 247L13.8 247.5C27.7 248 55.3 249 83.2 246C111 243 139 236 166.8 241.5C194.7 247 222.3 265 250 261C277.7 257 305.3 231 333.2 228C361 225 389 245 416.8 258.5C444.7 272 472.3 279 500 265C527.7 251 555.3 216 583.2 202.5C611 189 639 197 666.8 200C694.7 203 722.3 201 750 187.5C777.7 174 805.3 149 833.2 160.5C861 172 889 220 916.8 236.5C944.7 253 972.3 238 986.2 230.5L1000 223L1000 209L986.2 215C972.3 221 944.7 233 916.8 215.5C889 198 861 151 833.2 140C805.3 129 777.7 154 750 164C722.3 174 694.7 169 666.8 167C639 165 611 166 583.2 179.5C555.3 193 527.7 219 500 226.5C472.3 234 444.7 223 416.8 213.5C389 204 361 196 333.2 205C305.3 214 277.7 240 250 241.5C222.3 243 194.7 220 166.8 212C139 204 111 211 83.2 215.5C55.3 220 27.7 222 13.8 223L0 224Z" fill="#81696f"></path><path d="M0 301L13.8 301C27.7 301 55.3 301 83.2 301C111 301 139 301 166.8 301C194.7 301 222.3 301 250 301C277.7 301 305.3 301 333.2 301C361 301 389 301 416.8 301C444.7 301 472.3 301 500 301C527.7 301 555.3 301 583.2 301C611 301 639 301 666.8 301C694.7 301 722.3 301 750 301C777.7 301 805.3 301 833.2 301C861 301 889 301 916.8 301C944.7 301 972.3 301 986.2 301L1000 301L1000 221L986.2 228.5C972.3 236 944.7 251 916.8 234.5C889 218 861 170 833.2 158.5C805.3 147 777.7 172 750 185.5C722.3 199 694.7 201 666.8 198C639 195 611 187 583.2 200.5C555.3 214 527.7 249 500 263C472.3 277 444.7 270 416.8 256.5C389 243 361 223 333.2 226C305.3 229 277.7 255 250 259C222.3 263 194.7 245 166.8 239.5C139 234 111 241 83.2 244C55.3 247 27.7 246 13.8 245.5L0 245Z" fill="#ddd9d5"></path></svg>