<svg id="visual" viewBox="0 0 2000 450" width="2000" height="450" xmlns="http://www.w3.org/2000/svg" xmlns:xlink="http://www.w3.org/1999/xlink" version="1.1"><path d="M0 279L200 249L400 139L600 283L800 124L1000 287L1200 175L1400 214L1600 278L1800 268L2000 131L2000 0L1800 0L1600 0L1400 0L1200 0L1000 0L800 0L600 0L400 0L200 0L0 0Z" fill="#b9c8dd"></path><path d="M0 221L200 108L400 117L600 137L800 223L1000 145L1200 242L1400 104L1600 256L1800 134L2000 101L2000 0L1800 0L1600 0L1400 0L1200 0L1000 0L800 0L600 0L400 0L200 0L0 0Z" fill="#93adde"></path><path d="M0 85L200 138L400 170L600 167L800 128L1000 202L1200 169L1400 89L1600 106L1800 103L2000 120L2000 0L1800 0L1600 0L1400 0L1200 0L1000 0L800 0L600 0L400 0L200 0L0 0Z" fill="#7790dd"></path><path d="M0 101L200 106L400 71L600 194L800 104L1000 191L1200 70L1400 159L1600 134L1800 167L2000 140L2000 0L1800 0L1600 0L1400 0L1200 0L1000 0L800 0L600 0L400 0L200 0L0 0Z" fill="#6771d7"></path><path d="M0 71L200 132L400 52L600 152L800 119L1000 122L1200 77L1400 123L1600 53L1800 66L2000 138L2000 0L1800 0L1600 0L1400 0L1200 0L1000 0L800 0L600 0L400 0L200 0L0 0Z" fill="#666ad5"></path><path d="M0 75L200 77L400 55L600 127L800 107L1000 55L1200 134L1400 57L1600 114L1800 112L2000 40L2000 0L1800 0L1600 0L1400 0L1200 0L1000 0L800 0L600 0L400 0L200 0L0 0Z" fill="#6771d7"></path><path d="M0 95L200 77L400 34L600 69L800 109L1000 75L1200 75L1400 69L1600 103L1800 76L2000 29L2000 0L1800 0L1600 0L1400 0L1200 0L1000 0L800 0L600 0L400 0L200 0L0 0Z" fill="#7790dd"></path><path d="M0 23L200 23L400 40L600 26L800 21L1000 38L1200 32L1400 32L1600 78L1800 80L2000 58L2000 0L1800 0L1600 0L1400 0L1200 0L1000 0L800 0L600 0L400 0L200 0L0 0Z" fill="#93adde"></path><path d="M0 14L200 11L400 19L600 41L800 36L1000 43L1200 44L1400 46L1600 22L1800 19L2000 25L2000 0L1800 0L1600 0L1400 0L1200 0L1000 0L800 0L600 0L400 0L200 0L0 0Z" fill="#b9c8dd"></path></svg>